<?xml version="1.0" encoding="utf-8"?>
<!-- Generator: Adobe Illustrator 22.1.0, SVG Export Plug-In . SVG Version: 6.00 Build 0)  -->
<svg version="1.1" id="Layer_1" xmlns="http://www.w3.org/2000/svg" xmlns:xlink="http://www.w3.org/1999/xlink" x="0px" y="0px"
	 viewBox="0 0 100 100" style="enable-background:new 0 0 100 100;" xml:space="preserve">
<style type="text/css">
	.st0{fill:url(#SVGID_1_);}
	.st1{fill:url(#SVGID_2_);}
</style>
<linearGradient id="SVGID_1_" gradientUnits="userSpaceOnUse" x1="5.2132" y1="50.0375" x2="95.2132" y2="50.0375" gradientTransform="matrix(1 0 0 -1 0 102)">
	<stop  offset="0" style="stop-color:#7954E4"/>
	<stop  offset="1" style="stop-color:#4A40DA"/>
</linearGradient>
<path class="st0" d="M50.3,15.3h16.6c1.5,0,3,0.6,4.5,1c2.3,0.5,4.7,1.3,7,1.8c0.4,0.1,0.8,0.4,1.2,0.7c4.9,5.7,9.8,11.2,14.8,17
	c1.2,1.3,1.3,1.3,0.1,2.6c-6.1,7-12.3,14-18.4,21L50.8,88.2c-0.5,0.6-0.8,0.6-1.3,0L27.3,62.7C20.2,54.6,13.1,46.5,6,38.3
	c-1.1-1.3-1.1-1.3,0-2.4c4-4.5,8-8.8,12.1-13.3c1.1-1.3,2.2-2.5,3.3-3.7c0.3-0.3,0.6-0.5,1-0.6c3.1-0.8,6.3-1.7,9.4-2.6
	c0.5-0.2,1.2-0.3,1.7-0.2C39.3,15.3,44.7,15.3,50.3,15.3z"/>
<linearGradient id="SVGID_2_" gradientUnits="userSpaceOnUse" x1="10.8592" y1="51.7583" x2="89.5631" y2="51.7583" gradientTransform="matrix(1 0 0 -1 0 102)">
	<stop  offset="0" style="stop-color:#B07CFF"/>
	<stop  offset="1" style="stop-color:#7F59E6"/>
</linearGradient>
<path class="st1" d="M50.2,81.4c-6.6-11-13-22-19.5-32.9h38.8C63.2,59.5,56.7,70.3,50.2,81.4z M50.1,44.7H31.3
	c-0.8,0-0.8-0.2-0.5-0.8c1.7-4,3.5-7.8,5.2-11.8c0.3-0.5,0.5-0.7,1.1-0.7h26.2c0.6,0,1,0.2,1.3,0.8c1.7,3.8,3.3,7.7,5.2,11.6
	c0.4,0.7,0.2,0.9-0.5,0.9C62.8,44.6,56.4,44.6,50.1,44.7C50.1,44.6,50.1,44.7,50.1,44.7z M27.1,20.9c3.2-0.8,6.2-1.8,9.4-1.8
	c9.9,0.2,19.9,0.1,29.8,0c0.9,0,1.7,0.4,2.5,0.5c1.5,0.4,3,0.8,4.6,1.2c-0.1,0.4-0.4,0.4-0.5,0.6c-2.5,1.9-5.1,3.8-7.6,5.8
	c-0.4,0.3-0.7,0.4-1.2,0.4H36.3c-0.3,0-0.6,0.1-0.9-0.2C32.7,25.4,30,23.1,27.1,20.9z M77.7,22.6c0.1,0.2,0.3,0.4,0.4,0.4
	c3.7,4.4,7.5,8.6,11.2,13c0.4,0.4,0.3,0.5-0.2,0.8l-14.8,6.8c-0.4,0.2-0.5,0.1-0.7-0.3l-5.8-12.9c-0.2-0.4-0.2-0.5,0.2-0.8
	c3.1-2.2,6.1-4.6,9.1-6.9C77.5,22.8,77.6,22.8,77.7,22.6z M32.7,30.2c-0.1,0.2-0.2,0.4-0.2,0.5c-1.8,4.2-3.7,8.3-5.6,12.5
	c-0.3,0.5-0.4,0.8-1.1,0.4c-4.9-2.3-9.6-4.7-14.6-6.9c-0.5-0.3-0.4-0.4-0.1-0.8c4-4.3,7.7-8.5,11.6-12.9c0.4-0.4,0.6-0.4,1.1-0.1
	c2.7,2.2,5.6,4.4,8.3,6.6C32.3,29.8,32.6,29.9,32.7,30.2z M85.4,43c-8,9.2-16.1,18.4-24.2,27.7c-0.2-0.4,0.1-0.5,0.2-0.7
	c4.2-7.1,8.4-14.2,12.5-21.2c0.2-0.4,0.4-0.6,0.7-0.8c3.5-1.6,7.1-3.2,10.5-4.9H85.4z M15.2,42.9c2.2,1.1,4.5,2.3,6.8,3.1
	c3,1.1,4.9,3.1,6.4,5.8c3.2,5.9,6.8,11.8,10.3,17.5c0.2,0.4,0.4,0.6,0.4,1.1L15.2,42.9C15.2,43,15.2,43,15.2,42.9z"/>
</svg>
