<?xml version="1.0" encoding="utf-8"?>
<!-- Generator: Adobe Illustrator 22.1.0, SVG Export Plug-In . SVG Version: 6.00 Build 0)  -->
<svg version="1.1" id="Calque_1" xmlns="http://www.w3.org/2000/svg" xmlns:xlink="http://www.w3.org/1999/xlink" x="0px" y="0px"
	 viewBox="0 0 75 75" style="enable-background:new 0 0 75 75;" xml:space="preserve">
<style type="text/css">
	.st0{fill:#FFFFFF;}
</style>
<g>
	<g>
		<path class="st0" d="M37.5,75c-12.9,0-23.4-10.5-23.4-23.4c0-1.4,1.1-2.5,2.5-2.5s2.5,1.1,2.5,2.5c0,10.2,8.3,18.5,18.5,18.5
			c10.2,0,18.5-8.3,18.5-18.5c0-1.4,1.1-2.5,2.5-2.5c1.4,0,2.5,1.1,2.5,2.5C60.9,64.5,50.4,75,37.5,75z"/>
	</g>
	<g>
		<path class="st0" d="M17.1,43.4c-0.2,0-0.4,0-0.6-0.1c-1.3-0.3-2.1-1.7-1.8-3C18.1,26.9,34.8,3.7,35.5,2.8l2-2.8l2,2.8
			c0.7,1,17.2,23.8,20.7,37.3c0.3,1.3-0.4,2.7-1.8,3c-1.3,0.3-2.7-0.4-3-1.8c-2.6-9.9-13.4-26.2-18-32.8c-4.6,6.6-15.5,23.1-18,33
			C19.2,42.6,18.2,43.4,17.1,43.4z"/>
	</g>
</g>
</svg>
