<?xml version="1.0" encoding="utf-8"?>
<!-- Generator: Adobe Illustrator 22.1.0, SVG Export Plug-In . SVG Version: 6.00 Build 0)  -->
<svg version="1.1" id="Layer_1" xmlns="http://www.w3.org/2000/svg" xmlns:xlink="http://www.w3.org/1999/xlink" x="0px" y="0px"
	 viewBox="0 0 100 100" style="enable-background:new 0 0 100 100;" xml:space="preserve">
<style type="text/css">
	.st0{fill:url(#SVGID_1_);}
	.st1{fill:url(#SVGID_2_);}
</style>
<linearGradient id="SVGID_1_" gradientUnits="userSpaceOnUse" x1="5.1814" y1="51.8" x2="95.1814" y2="51.8">
	<stop  offset="0" style="stop-color:#B07CFF"/>
	<stop  offset="1" style="stop-color:#7F59E6"/>
</linearGradient>
<path class="st0" d="M59.2,62.1c-3.2,1.9-6.2,3.7-9.3,5.6c-3.4,2-6.6,3.9-10,5.9c-1.5,1-3.1,1-4.7,0.1c-9.5-5.4-19-10.6-28.5-16
	c-1.7-1-2-3-0.6-4c0.4-0.3,0.8-0.4,1.2-0.1c8.4,4.8,27.1,15.3,28,15.7c1.5,0.9,3,0.8,4.4-0.1c6.2-3.7,12.4-7.4,18.6-11.1
	c0.6-0.3,0.8-0.7,0.8-1.3c-0.1-1.2,0-2.3,0-3.6c-0.9,0.5-1.6,1-2.5,1.4c-5.6,3.4-11.1,6.6-16.7,10c-1.6,1-3.3,1.1-4.9,0.1
	C25.6,59.2,16,53.8,6.5,48.4c-1.8-1.1-1.8-3.2,0-4.2c12-7.2,24-14.3,36.1-21.5c5.9-3.5,11.7-6.9,17.5-10.5c1.9-1.2,3.5-1.2,5.5-0.1
	c9.3,5.3,18.7,10.6,28.1,15.8c2,1.2,2,3.2,0.1,4.4c-6.2,3.7-12.5,7.5-18.7,11.1c-0.6,0.4-0.9,0.8-0.9,1.4c0.1,1.2,0,2.2,0,3.4
	c0.3,0.1,0.5-0.1,0.7-0.2c6-3.5,12.1-7.2,18-10.8c0.7-0.4,1.1-0.3,1.5,0.2c1.2,1.2,0.9,2.9-0.6,3.7c-3.5,2.1-7.2,4.3-10.7,6.4
	c-2.7,1.6-5.5,3.3-8.2,4.9c-0.5,0.3-0.8,0.6-0.8,1.2c0.1,1.2,0,2.3,0,3.5c0.4,0.2,0.6-0.1,0.8-0.2c6-3.5,12-7.1,17.9-10.7
	c0.7-0.4,1.1-0.3,1.5,0.2c1.2,1.2,1,2.9-0.6,3.7c-3.3,1.9-6.5,3.9-9.8,5.9l-9.2,5.5c-0.5,0.3-0.7,0.6-0.7,1.2v3.7
	c1.2-0.7,2.2-1.3,3.3-1.9c5.2-3.1,10.4-6.1,15.4-9.3c0.6-0.4,1.1-0.3,1.4,0.2c1.2,1.1,1,2.9-0.6,3.8c-3.5,2.1-7,4.2-10.6,6.3
	C69,74.2,54.6,82.7,40.3,91.3c-1.8,1.2-3.5,1.2-5.5,0.1C25.5,86,16,80.8,6.6,75.5C5,74.6,4.7,72.8,6,71.7c0.5-0.5,0.9-0.6,1.4-0.2
	C11.8,74,30.1,84.3,34.8,87c1.8,1.1,3.5,1,5.3-0.1c5.9-3.6,12-7.2,18-10.7c0.8-0.4,1-0.9,1-1.7c-0.1-1.1,0-2.1,0-3.4
	c-0.9,0.5-1.6,1-2.4,1.4c-5.6,3.4-11.1,6.6-16.7,10c-1.6,1-3.3,1.1-4.9,0.1C25.6,77.1,16,71.9,6.5,66.4c-1.5-0.9-1.6-2.9-0.3-3.9
	c0.4-0.3,0.7-0.3,1.2,0c5,2.8,23.6,13.3,27.9,15.7c1.5,0.9,3.1,0.9,4.6-0.1c6.2-3.7,12.4-7.4,18.6-11.1c0.6-0.3,0.7-0.7,0.7-1.2
	C59.1,64.6,59.2,63.4,59.2,62.1z"/>
<linearGradient id="SVGID_2_" gradientUnits="userSpaceOnUse" x1="18.7889" y1="38.4795" x2="81.2824" y2="38.4795">
	<stop  offset="0" style="stop-color:#7954E4"/>
	<stop  offset="1" style="stop-color:#4A40DA"/>
</linearGradient>
<path class="st1" d="M56.5,49.4c-1.9,1.2-3.7,2.2-5.6,3.4c-2.3,1.3-4.6,2.8-6.9,4.1c-0.4,0.3-0.8,0.3-1.2,0.1
	c-3.7-1.3-7.4-1.4-11.1,0.1c-0.4,0.2-0.8,0.2-1.2-0.1c-3.5-2-7.2-4.1-10.8-6.1c-0.5-0.3-0.7-0.5-0.5-1.1c0.8-2.3,0.7-4.6-0.3-6.8
	c-0.3-0.6-0.1-0.9,0.4-1.2c3.6-2.1,7.2-4.3,10.8-6.4c0.5-0.3,0.8-0.3,1.2,0c7.4,4.1,14.7,8.3,22.1,12.4
	C54.5,48.3,55.5,48.7,56.5,49.4z M46,26.1c3.5-2.1,7-4.1,10.4-6.1c0.3-0.2,0.5-0.2,0.8,0c4,1.6,8.1,1.5,12-0.1
	c0.4-0.2,0.6-0.1,0.9,0.1c3.6,2,7.3,4.1,10.9,6.1c0.4,0.2,0.5,0.4,0.3,0.9c-0.9,2.4-1,4.8,0,7.2c0.2,0.5,0,0.7-0.4,0.9
	c-2.9,1.7-5.9,3.5-8.7,5.3c-0.6,0.3-0.9,0.1-1.2-0.2L51,28.9C49.2,27.9,47.7,27,46,26.1z"/>
</svg>
