<svg xmlns="http://www.w3.org/2000/svg" viewBox="0 0 100 100"><path d="M7.8 71.6c.5.7 1.2.8 2 .8.9-.1 2.1-.3 2.9.1s.8 1.7 1.1 2.5c.7 1.4.7 1.4-.5 2.6-.4.4-.9.8-1.3 1.3-.6.7-.7 1.3 0 1.9 1.8 1.9 3.8 3.8 5.7 5.7.6.6 1.3.6 1.9-.1.8-.7 1.4-1.4 2.2-2.1.3-.3.5-.3.8-.2.9.5 1.9.9 3 1.3.4.1.6.3.6.8V89c0 .8.3 1.3.9 1.8H8.6c-.5 0-.6-.1-.6-.6-.2-6.4-.2-12.5-.2-18.6z" fill="#fdfdfd"/><linearGradient id="a" gradientUnits="userSpaceOnUse" x1="31.5738" y1="25.026" x2="63.0536" y2="25.026"><stop offset="0" stop-color="#b07cff"/><stop offset="1" stop-color="#7f59e6"/></linearGradient><path d="M61.7 21.1H60c-.3 0-.3 0-.5-.3-.8-1.7-.8-1.7.4-2.9l.1-.1c.8-.8.8-1.5 0-2.3l-2.7-2.7c-1.8-1.8-1.9-1.8-3.6 0-.4.4-.8.4-1.3.3-1.1-.3-1.5-.9-1.3-1.9v-.5c0-.9-.5-1.4-1.3-1.4H46c-2.4 0-2.5.2-2.5 2.5v.6c0 .3-.2.3-.3.4-1.7.8-1.7.8-2.9-.5l-.1-.1c-.7-.7-1.3-.7-2.1 0l-2.7 2.7c-1.8 1.8-1.8 1.8 0 3.6.4.4.4.8.3 1.3-.3 1.1-.9 1.5-2 1.3h-.6c-.8 0-1.3.5-1.3 1.3v5.2c0 .8.5 1.3 1.3 1.3h1.4c.4-.1.6.1.8.5.7 1.1.5 1.9-.6 2.7l-.3.3c-.6.7-.6 1.3 0 1.9l3.6 3.6c.6.6 1.3.6 1.9 0l1.1-1.1c.2-.2.3-.3.6-.2 1.8.6 1.8.6 1.8 2.4v.3c.1 1 .5 1.5 1.6 1.5h3.7c2.5 0 2.6-.1 2.6-2.6 0-.5.1-.8.6-1 1.2-.6 1.9-.4 2.6.6 0 .1.2.2.3.3.6.5 1.3.5 1.8 0 1.3-1.2 2.5-2.4 3.7-3.7.6-.6.6-1.3 0-1.9l-1.1-1.1c-.2-.3-.3-.4-.2-.7.6-1.7.6-1.7 2.4-1.7h.5c.8-.1 1.3-.5 1.3-1.3v-5.3c-.1-.8-.7-1.3-1.5-1.3zm-14.3 10c-3.6.1-6.3-2.7-6.3-6.1 0-3.4 2.7-6.1 6.2-6.1 3.4 0 6 2.7 6.1 6 0 3.4-2.7 6.2-6 6.2z" fill="url(#a)"/><linearGradient id="b" gradientUnits="userSpaceOnUse" x1="7.817" y1="66.7892" x2="55.1627" y2="66.7892"><stop offset="0" stop-color="#b07cff"/><stop offset="1" stop-color="#7f59e6"/></linearGradient><path d="M53.7 61.4h-2.9c-.5 0-.7-.1-.8-.6-.3-1-.7-2-1.2-2.9-.2-.4-.2-.6.2-.9l2-2c.7-.7.7-1.4 0-2.1l-5.5-5.5c-.7-.7-1.4-.7-2.1 0l-2 2c-.3.3-.6.4-1 .2-.9-.5-1.9-.9-2.9-1.2-.5-.2-.6-.4-.6-.8v-2.8c0-1.1-.5-1.6-1.6-1.6h-7.6c-1.1 0-1.6.5-1.6 1.6v2.9c0 .3-.1.6-.5.7-1.1.3-2.1.8-3 1.3-.4.2-.6.2-.9-.2l-2-2c-.7-.7-1.4-.7-2.1 0L12.1 53c-.7.7-.7 1.4 0 2.1L14 57c.4.4.6.7.3 1.3-.5.8-.8 1.8-1.1 2.7-.2.6-.4.7-.9.7-.8 0-1.5.1-2.3 0-.8 0-1.5.3-2 .8v9.3c.3.8.8 1 1.6 1h2.5c.5-.1.8.1.9.6.2.8.5 1.6.9 2.4.3.5.2.9-.3 1.3-.5.5-1.1 1-1.5 1.5-.8.9-.8 1.7.1 2.6 1.7 1.8 3.4 3.4 5.2 5.2.9.9 1.6 1 2.6.1.5-.5 1.1-1 1.6-1.6.4-.4.8-.6 1.4-.3.7.4 1.4.8 2.2.9.6.2.8.5.8 1v2.4c0 .9.3 1.3 1.2 1.6H36c.7-.4.9-1 .9-1.8v-2.5c0-.5.1-.8.7-.9 1-.3 1.9-.7 2.9-1.2.4-.3.7-.2 1 .2l2 2c.8.7 1.4.7 2.1 0l5.5-5.5c.8-.7.8-1.3 0-2.1-.7-.8-1.4-1.4-2.1-2.1-.3-.3-.3-.4-.1-.8.5-1 .9-2 1.3-3.1.1-.4.3-.5.7-.5h2.9c1 0 1.5-.5 1.5-1.5V63c-.1-1.1-.6-1.6-1.6-1.6zM31.4 77.2c-5.7 0-10.2-4.5-10.2-10.2 0-5.6 4.5-10.2 10.2-10.2 5.7 0 10.2 4.5 10.2 10.2 0 5.7-4.5 10.2-10.2 10.2z" fill="url(#b)"/><linearGradient id="c" gradientUnits="userSpaceOnUse" x1="55.3306" y1="53.8615" x2="92.183" y2="53.8615"><stop offset="0" stop-color="#7954e4"/><stop offset="1" stop-color="#4a40da"/></linearGradient><path d="M90.3 49.3h-1.6c-.3.1-.5 0-.6-.3-.3-.8-.8-1.5-.8-2.2 0-.8 1-1.2 1.5-1.8.7-.8.7-1.4-.1-2.2l-3.9-3.9c-.8-.8-1.4-.8-2.4 0l-.5.5c-1.1 1.1-1.1 1.1-2.4.5-.3-.1-.6-.3-.9-.3-.4-.1-.5-.3-.5-.7v-2c0-.8-.5-1.3-1.3-1.3h-6.1c-.8 0-1.3.5-1.3 1.3 0 .6-.1 1.2 0 1.8 0 .6-.3.8-.8 1.1-1.5.9-2.6.6-3.6-.8-.7-.9-1.4-.8-2.3 0l-3.8 3.8c-1 1-1.1 1.6.1 2.6 1.1.9 1.7 1.8.7 3.1-.1.1-.1.3-.2.5-.1.3-.3.5-.7.5h-1.9c-.9 0-1.4.5-1.4 1.4v6c0 .9.5 1.4 1.4 1.4h2c.3 0 .5.2.6.4.3.8.9 1.5.8 2.2-.1.8-1.1 1.2-1.6 1.8l-.1.1c-.6.7-.6 1.3 0 1.9l4.3 4.3c.6.6 1.3.6 1.9 0 .5-.4.9-.9 1.4-1.4.2-.3.3-.3.7-.2.7.3 1.6.5 2.1 1 .5.6.1 1.6.2 2.4v.2c.1.8.6 1.3 1.4 1.3h6c.9 0 1.4-.5 1.4-1.4V69c0-.3.2-.5.5-.7.8-.3 1.5-.9 2.2-.8.7.1 1.2 1 1.8 1.5.8.8 1.3.8 2.1 0l3.4-3.4c1.5-1.6 1.5-1.8 0-3.4-1.1-1.1-1.1-1.1-.5-2.4.5-1.3.5-1.3 2.1-1.3.8 0 1.7 0 2.3-.8 0-2.4 0-4.8.4-7.3-.6-.9-1.2-1.2-2-1.1zM73.5 61.4c-4.2 0-7.6-3.4-7.6-7.5 0-4.2 3.4-7.6 7.6-7.6 4-.1 7.5 3.3 7.5 7.5-.1 4.2-3.4 7.6-7.5 7.6z" fill="url(#c)"/></svg>