<svg xmlns="http://www.w3.org/2000/svg" viewBox="0 0 96 96"><path d="M24.2 46.6C24.2 24.4 41.8 3.8 64.4.7c.3 0 .6-.1.8-.1 6.3-1.2 6.2-1.2 6.7 5V50c0 .7-47.7 14.7-47.7 14.7V46.6z" fill="#91dcfa"/><path d="M71.9 31.9c0 6.6.1 13.1.1 19.7-1.3 22.9-20.7 42.6-43.6 44.1-.7 0-1.5.1-2.2.2-1.4.2-2.1-.2-2.1-1.8.1-10.1.1-20.1.1-30.1h.4c.7.7.7 1.7.7 2.6 0 4.2.2 8.4.1 12.5-.1 1.9 0 3.8-.1 5.6-.1 1.8.5 2.3 2.3 2.1 7.7-.9 14.6-3.2 20.7-8.2 8-6.6 13.2-14.8 14.7-25.2.7-4.5.2-9 .3-13.5.1-1.9-.2-3.8.3-5.6 1.8-2.4 5.5-3.6 8.3-2.4z" fill="#548ede"/><path d="M71.9 31.9c-2.9.2-5.8.5-8 2.6-5.4 4.7-7 10.8-7.6 17.7-1 13.6-12.3 25.3-26.4 27.9-1.8.3-4 .9-5.8-.4V67.8c.2-.1 2.1 3.4 4.7 2.9C39.5 68.4 47 59.4 47.3 48.5c.3-11.7 6.9-20.7 17.4-24.1.4-.1-.1-.1.3-.1 4-.2 5.8-7.8 6.9-7.7v15.3z" fill="#381ea8"/><path d="M72 16.6v5.2c0 1.8-1.5 2.6-3.2 2.7-10 .6-19 10.2-20.3 19.6-.4 3.2-.2 6.4-1 9.5C45 63 36.9 70.5 27.4 71.7c-1.7.2-3.4.8-3.3-1.3v-6.3c2.6-.4 5.8-1.1 8-2.6.6-.7 1.1-1.5 1.9-2.1 3.5-3.1 5.2-7.1 5.4-11.8.4-16.9 12.1-30 28.9-32.4 1.2-.2 2.6-.8 3.6.2 0 .1.1 1.2.1 1.2z" fill="#3a39b9"/><path d="M71.9 15.5C54 16 40.7 28.8 40.2 46.6c-.2 6.1-2.5 10.6-7.9 13.7V46.2c0-19 15.7-38.7 33.5-38.7 6.1 0 6.1-.9 6.1 5.1v2.9z" fill="#6eb5ef"/><path d="M24.4 79.8c15 .5 29.2-12.1 31.2-26.6.6-4.2-.2-8.7 2.2-12.6 1.6-2.5 3.4-4.7 6.1-6.1-.2 8.7 1.3 17.5-1.9 25.9-5.6 14.7-15.7 24.1-31.6 26.7-6 1-6 1-6-5.1v-2.2z" fill="#3f64cb"/></svg>